<mxfile host="app.diagrams.net" modified="2024-07-12T05:33:39.374Z" agent="Mozilla/5.0 (Windows NT 10.0; Win64; x64) AppleWebKit/537.36 (KHTML, like Gecko) Chrome/125.0.0.0 Safari/537.36 Edg/125.0.0.0" version="24.6.5" etag="iG8W4JBbRFFZyFrVDvMd" type="github">
  <diagram name="Page-1" id="Tam4Pvvi3rC_5sRbWKF_">
    <mxGraphModel>
      <root>
        <mxCell id="0" />
        <mxCell id="1" parent="0" />
      </root>
    </mxGraphModel>
  </diagram>
</mxfile>
